<svg xmlns="http://www.w3.org/2000/svg" width="246" height="241.963" viewBox="0 0 246 241.963">
  <g id="Layer_2" data-name="Layer 2" transform="translate(0.008)">
    <g id="Layer_1" data-name="Layer 1" transform="translate(-0.008)">
      <path id="Path_3392" data-name="Path 3392" d="M269.89,304.821c.315-.45.634-.911.934-1.374.1-.144.192-.29.287-.423l-39.951-20.959-1.019-.457V203.262l-.252-.19-8.62-6.462V286L267.6,307.932Q268.774,306.421,269.89,304.821Z" transform="translate(-174.496 -155.05)" fill="#80ed99"/>
      <path id="Path_3393" data-name="Path 3393" d="M418.354,288.105a29.014,29.014,0,0,1-10.635-1.945,25.962,25.962,0,0,1-10.2-7.238l-.036.013-.03-.089a32.582,32.582,0,0,1-3.285-4.517q-.423-.674-.805-1.387-.932-1.691-1.752-3.555c-.211-.486-.423-.977-.619-1.48A66.467,66.467,0,0,1,387.411,255a118.918,118.918,0,0,1-1.308-28.444c1.095-17.084,7.151-33.549,18-48.937a121.974,121.974,0,0,1,9.66-11.975l-37.609,29.608L328.322,161.84a118.04,118.04,0,0,1,20.715,27.9h.015v.011a104.448,104.448,0,0,1,7.362,17.545,94.327,94.327,0,0,1,3.245,13.759c.114.727.211,1.459.319,2.186a86.032,86.032,0,0,1,.74,13.347,1.532,1.532,0,0,1,0,.169c0,.353-.025.71-.034,1.057-.013.271-.027.543-.04.814-.015.351-.034.7-.057,1.057a77.772,77.772,0,0,1-2.911,16.928c-.156.533-.317,1.057-.486,1.6q-1.006,3.2-2.291,6.293a72.407,72.407,0,0,1-3.923,7.975c-.266.467-.535.926-.81,1.387a76.557,76.557,0,0,1-4.987,7.3c-.359.471-.733.941-1.114,1.41a82.085,82.085,0,0,1-6.13,6.764l-.894.869c-.865.831-1.759,1.651-2.672,2.456a95.519,95.519,0,0,1-16.589,11.689,114.992,114.992,0,0,0,56.41-21.164l.423.594.011.013c13.444,15.778,31.409,21.322,49.3,15.22a44.844,44.844,0,0,0,26.159-23.389C444.819,279.614,431.973,288.1,418.354,288.105Z" transform="translate(-250.605 -127.63)" fill="#22577a"/>
      <path id="Path_3394" data-name="Path 3394" d="M745.3,196.61V286L697.547,308.6a25.924,25.924,0,0,1-2.659-2.416l-.376-.4c-.137-.148-.271-.3-.4-.45s-.211-.249-.323-.374-.271-.317-.4-.48c-.376-.459-.742-.939-1.095-1.433l43.291-22.544h.017l1.082-.5V203.072l1.97-1.48,1.6-1.192Z" transform="translate(-545.95 -155.05)" fill="#80ed99"/>
      <path id="Path_3395" data-name="Path 3395" d="M720.306,163.38v89.387l-.224.106-29.45,15.334L676.6,275.512c-.142-.211-.275-.423-.406-.649-.118-.188-.237-.376-.349-.569-.159-.266-.309-.539-.465-.814-.364-.653-.721-1.332-1.057-2.034-.233-.478-.457-.97-.676-1.48-.034-.08-.07-.163-.1-.243l2.365-1.5v.019l34.646-23.6V170.7Z" transform="translate(-531.172 -128.844)" fill="#57cc99"/>
      <path id="Path_3396" data-name="Path 3396" d="M688.185,330.056v39.8l-33.715,22.975h0l-2.315,1.463a60.649,60.649,0,0,1-2.325-7.337c-.133-.539-.26-1.089-.389-1.642-.051-.249-.112-.5-.163-.755-.049-.211-.093-.423-.137-.651l28.723-17.4V345.633L647.2,362.053c.013-2.537.1-5.255.285-8.136a88.925,88.925,0,0,1,7.677-30.7v24.827l31.426-17.122Z" transform="translate(-510.392 -254.897)" fill="#38a3a5"/>
      <path id="Path_3397" data-name="Path 3397" d="M335.074,192.414v23.007l26.833,18.13c-.089.3-.175.6-.271.9q-1.04,3.346-2.395,6.608c-.533,1.268-1.1,2.515-1.691,3.729L325.16,222.91V132.84a120.965,120.965,0,0,1,26.78,31.972l-16.879-11.983V178.45L364.105,199.2l.114.776q.086.634.163,1.268c.011.063.017.131.025.194.036.313.074.634.11.939s.066.649.1.97.057.586.08.879.046.581.072.867c.017.192.03.385.047.573v.15c0,.051.011.1.011.15v.108a.843.843,0,0,0,.015.192.348.348,0,0,1,0,.125c.053.846.1,1.691.121,2.537.013.444.023.886.036,1.33q.013,1.315,0,2.63Z" transform="translate(-256.425 -104.76)" fill="#38a3a5"/>
      <path id="Path_3398" data-name="Path 3398" d="M313.956,276.264c-.482.939-.985,1.864-1.5,2.765l-.057.1c-.249.435-.5.862-.753,1.287-.019.032-.038.068-.055.1q-.273.452-.556.9l-16.911-8.878-23.193-12.159-.144-.074V170.93l9.9,7.424v1.268l.319.241h0l-.319-.239v74.183Z" transform="translate(-213.548 -134.798)" fill="#57cc99"/>
      <path id="Path_3399" data-name="Path 3399" d="M722.577,125.26v22.986l-1.6.8L690.81,164.41c8.079-16.678,19.963-29.139,28.972-36.945.4-.351.8-.7,1.2-1.023l.085-.072.974-.679.531-.423Z" transform="translate(-544.783 -98.782)" fill="#38a3a5"/>
      <path id="Path_3400" data-name="Path 3400" d="M464.266,77.526a24.907,24.907,0,0,1,.446-4.323,39.616,39.616,0,0,1,2.56-7.523c.3-.712.6-1.442.892-2.173l-.949-.586-.579-.353L465.691,62c-.372.881-.767,1.752-1.156,2.606a32.052,32.052,0,0,0-3.124,9.237,10.18,10.18,0,0,0,.657,4.532h0l-1.408.535,2.518,6.593,4.758-1.816-2.52-6.6Zm2.255,5.523-2.71,1.036-1.738-4.54.357-.137c.08.211.163.423.243.634a28.048,28.048,0,0,1,.97,2.9l1.067-.235a26.241,26.241,0,0,1-.435-4l.507-.194" transform="translate(-363.283 -48.894)" fill="#22577a"/>
      <path id="Path_3401" data-name="Path 3401" d="M501.219,29.727l-.154-.247h-.294a23.8,23.8,0,0,0-13.047,3.8,13.239,13.239,0,0,1,6.13-3.885c.211-.076.44-.152.67-.224l.361-.112c.131-.038.262-.08.4-.118.222-.063.446-.127.676-.186l.1-.025c.268-.072.539-.137.818-.211.072-.019.146-.036.211-.051q.33-.076.666-.146c.076-.017.15-.034.23-.049.268-.055.545-.11.824-.163l.07-.011c.355-.066.721-.129,1.093-.19l.461-.074V21.624l15.384-4.862L488.536,0,458,9.673l5.593,3.433.945.581.579.353.949.586,6.783,4.162.26-.112a24.946,24.946,0,0,1,2.475-.92,34.165,34.165,0,0,1,15.156-.8l-.981.027h0l-.71.021q-.611.021-1.228.055l-.915.055h-.038c-.3.023-.609.044-.913.07h-.074c-.294.025-.583.053-.875.082l-.1.013c-.279.027-.562.057-.846.089l-.131.017-.805.1-.154.023c-.26.038-.52.076-.778.118a1.556,1.556,0,0,0-.173.025q-.374.063-.748.133l-.192.036-.71.146c-.072.017-.139.034-.211.047-.228.049-.454.1-.683.156l-.23.055-.634.167-.258.072c-.211.057-.4.114-.594.175l-.29.087-.539.178-.323.12c-.161.057-.319.118-.48.178-.12.047-.241.093-.357.144l-.321.129-.319.135-.321.146v5.9a18.047,18.047,0,0,0-2.234,2.249,17.756,17.756,0,0,0,13.647,29.071c.552,0,1.108-.027,1.664-.08A17.756,17.756,0,0,0,503.9,37.577a17.522,17.522,0,0,0-2.676-7.851Z" transform="translate(-361.185)" fill="#22577a"/>
      <path id="Path_3402" data-name="Path 3402" d="M16.383,991.769a5.324,5.324,0,0,0,1.087.211q.541.051,1.084.051a9.091,9.091,0,0,0,2.613-.372,9.429,9.429,0,0,0,2.359-1.07,8.745,8.745,0,0,0,1.968-1.691,8.879,8.879,0,0,0,1.408-2.222l6.787,6.819a18.177,18.177,0,0,1-2.97,3.291,18.632,18.632,0,0,1-3.632,2.477,18.127,18.127,0,0,1-4.105,1.545,18.693,18.693,0,0,1-4.439.524A18.344,18.344,0,0,1,5.437,995.94a18.629,18.629,0,0,1-3.985-6.054,19.937,19.937,0,0,1-1.459-7.72,20.593,20.593,0,0,1,1.459-7.872,17.79,17.79,0,0,1,9.891-9.975,18.732,18.732,0,0,1,7.21-1.391,18.181,18.181,0,0,1,4.439.543,18.6,18.6,0,0,1,7.77,4.054,18.414,18.414,0,0,1,2.987,3.308Zm4.75-19.1a5.38,5.38,0,0,0-1.268-.307,12.386,12.386,0,0,0-1.306-.068,9.277,9.277,0,0,0-3.579.7,8.534,8.534,0,0,0-2.919,1.985,9.386,9.386,0,0,0-1.951,3.105,11.138,11.138,0,0,0-.712,4.088c0,.34.017.725.053,1.154a13.905,13.905,0,0,0,.457,2.575,4.689,4.689,0,0,0,.442,1.084Z" transform="translate(0.008 -759.382)" fill="#57cc99"/>
      <path id="Path_3403" data-name="Path 3403" d="M172.879,925.828a14.01,14.01,0,0,1,1.154-5.665,14.8,14.8,0,0,1,7.77-7.77,14.011,14.011,0,0,1,5.665-1.154h22.326v9.738H187.468a4.8,4.8,0,0,0-4.862,4.862,4.974,4.974,0,0,0,.372,1.917,4.754,4.754,0,0,0,2.579,2.6,4.825,4.825,0,0,0,1.9.374h9.753a14.306,14.306,0,0,1,5.684,1.137,14.513,14.513,0,0,1,7.77,7.768,14.614,14.614,0,0,1-7.773,19.122,14.136,14.136,0,0,1-5.684,1.152H175.593v-9.736h21.62a4.862,4.862,0,1,0,0-9.7h-9.745a14.009,14.009,0,0,1-5.665-1.154,14.767,14.767,0,0,1-7.77-7.787A14.137,14.137,0,0,1,172.879,925.828Z" transform="translate(-136.333 -718.619)" fill="#22577a"/>
      <path id="Path_3404" data-name="Path 3404" d="M406.847,971.571l-6.785,6.828a9.25,9.25,0,0,0-1.391-2.562,9.435,9.435,0,0,0-1.985-1.915,8.528,8.528,0,0,0-2.393-1.188,8.7,8.7,0,0,0-2.647-.408,8.387,8.387,0,0,0-3.579.78,8.781,8.781,0,0,0-2.919,2.19,10.484,10.484,0,0,0-1.951,3.342,12.262,12.262,0,0,0-.712,4.274,8.935,8.935,0,0,0,.712,3.564,9.369,9.369,0,0,0,1.951,2.917,9.253,9.253,0,0,0,9.111,2.308,9.432,9.432,0,0,0,2.359-1.07A8.916,8.916,0,0,0,400,986.712l6.785,6.819a18.255,18.255,0,0,1-2.959,3.291,18.7,18.7,0,0,1-3.632,2.477,18.163,18.163,0,0,1-4.105,1.545,18.707,18.707,0,0,1-4.428.524,18.159,18.159,0,0,1-7.21-1.442,18.6,18.6,0,0,1-9.895-9.831,17.854,17.854,0,0,1-1.459-7.187,20.749,20.749,0,0,1,1.458-7.8,20.138,20.138,0,0,1,3.987-6.329,18.86,18.86,0,0,1,5.9-4.257,16.984,16.984,0,0,1,7.21-1.56,17.42,17.42,0,0,1,4.46.571,18,18,0,0,1,7.821,4.376A16.741,16.741,0,0,1,406.847,971.571Z" transform="translate(-294.229 -759.406)" fill="#22577a"/>
      <path id="Path_3405" data-name="Path 3405" d="M563.373,951.923H554.11V901.13h9.263v16.048A10.885,10.885,0,0,1,566.8,915.4a12.577,12.577,0,0,1,3.593-.524,15.747,15.747,0,0,1,6.312,1.268,16.066,16.066,0,0,1,5.141,3.494,16.7,16.7,0,0,1,3.46,5.192,15.909,15.909,0,0,1,1.268,6.329v20.764h-9.324V931.155h.068a6.8,6.8,0,0,0-.543-2.7,6.976,6.976,0,0,0-3.7-3.716,6.686,6.686,0,0,0-2.68-.543,7.021,7.021,0,0,0-2.748.543,6.91,6.91,0,0,0-3.733,3.716,6.8,6.8,0,0,0-.543,2.7Z" transform="translate(-436.979 -710.647)" fill="#22577a"/>
      <path id="Path_3406" data-name="Path 3406" d="M766.507,982.181a19.543,19.543,0,0,1-1.461,7.584,18.973,18.973,0,0,1-3.97,6.073,18.414,18.414,0,0,1-30.232-6.073,19.583,19.583,0,0,1-1.459-7.584,19.886,19.886,0,0,1,1.459-7.669,18.781,18.781,0,0,1,3.987-6.09,18.52,18.52,0,0,1,5.9-4.016,17.989,17.989,0,0,1,7.21-1.459,19.006,19.006,0,0,1,7.244,1.374,17.5,17.5,0,0,1,5.887,3.9,18.478,18.478,0,0,1,3.97,6.073A20.493,20.493,0,0,1,766.507,982.181Zm-9.333,0a10.781,10.781,0,0,0-.729-4.054,9.616,9.616,0,0,0-1.987-3.12,8.561,8.561,0,0,0-2.934-2,9.561,9.561,0,0,0-7.16,0,8.4,8.4,0,0,0-2.919,2,9.574,9.574,0,0,0-1.951,3.122,11.041,11.041,0,0,0-.712,4.054,10.524,10.524,0,0,0,.712,3.9,9.825,9.825,0,0,0,1.951,3.122,9.152,9.152,0,0,0,2.919,2.086,8.544,8.544,0,0,0,3.579.763,9.063,9.063,0,0,0,3.581-.712,8.9,8.9,0,0,0,2.934-2,9.374,9.374,0,0,0,1.985-3.122,10.822,10.822,0,0,0,.734-4.04Z" transform="translate(-575.205 -759.397)" fill="#22577a"/>
      <path id="Path_3407" data-name="Path 3407" d="M956.9,982.182a19.584,19.584,0,0,1-1.459,7.584,18.974,18.974,0,0,1-3.97,6.073,18.414,18.414,0,0,1-30.232-6.073,19.582,19.582,0,0,1-1.459-7.584,19.887,19.887,0,0,1,1.459-7.669,18.78,18.78,0,0,1,3.987-6.09,18.519,18.519,0,0,1,5.9-4.016,17.99,17.99,0,0,1,7.21-1.459,19.005,19.005,0,0,1,7.244,1.374,17.494,17.494,0,0,1,5.887,3.9,18.475,18.475,0,0,1,3.97,6.073A20.518,20.518,0,0,1,956.9,982.182Zm-9.33,0a10.782,10.782,0,0,0-.729-4.054,9.616,9.616,0,0,0-1.985-3.122,8.571,8.571,0,0,0-2.936-2,9.561,9.561,0,0,0-7.16,0,8.416,8.416,0,0,0-2.917,2,9.543,9.543,0,0,0-1.951,3.122,10.992,10.992,0,0,0-.712,4.054,10.482,10.482,0,0,0,.712,3.9,9.792,9.792,0,0,0,1.951,3.122,9.164,9.164,0,0,0,2.917,2.086,8.543,8.543,0,0,0,3.581.763,9.048,9.048,0,0,0,3.579-.712,8.907,8.907,0,0,0,2.936-2,9.376,9.376,0,0,0,1.985-3.122A10.824,10.824,0,0,0,947.565,982.182Z" transform="translate(-725.35 -759.397)" fill="#22577a"/>
      <path id="Path_3408" data-name="Path 3408" d="M1128.95,951.923h-9.33V901.13h9.33Z" transform="translate(-882.95 -710.647)" fill="#22577a"/>
    </g>
  </g>
</svg>
